<?xml version="1.0" standalone="no"?>
<!DOCTYPE svg PUBLIC "-//W3C//DTD SVG 20010904//EN"
 "http://www.w3.org/TR/2001/REC-SVG-20010904/DTD/svg10.dtd">
<svg version="1.0" xmlns="http://www.w3.org/2000/svg"
 width="260.000000pt" height="260.000000pt" viewBox="0 0 260.000000 260.000000"
 preserveAspectRatio="xMidYMid meet">
<metadata>
Created by potrace 1.14, written by Peter Selinger 2001-2017
</metadata>
<g transform="translate(0.000000,260.000000) scale(0.100000,-0.100000)"
fill="#000000" stroke="none">
<path d="M723 2112 l-33 -3 0 -825 0 -824 33 -1 c139 -4 794 0 842 5 105 11
149 23 236 67 88 44 163 119 206 207 37 74 38 79 38 186 0 99 -3 117 -27 168
-59 126 -197 221 -330 227 -32 2 -19 18 25 31 207 62 314 252 257 460 -43 161
-210 274 -438 296 -65 7 -752 11 -809 6z m713 -377 c61 -30 87 -71 87 -135 0
-60 -28 -102 -86 -132 -36 -18 -62 -21 -169 -23 l-128 -2 0 158 0 159 123 0
c111 0 128 -2 173 -25z m35 -592 c25 -11 59 -37 74 -58 24 -31 29 -46 28 -94
-1 -135 -64 -173 -295 -175 l-138 -1 0 176 0 176 143 -2 c120 -1 149 -5 188
-22z"/>
</g>
</svg>
