<svg xmlns="http://www.w3.org/2000/svg" height="16" width="20" viewBox="0 0 640 512">  <!--!Font Awesome Pro 6.5.1 by @fontawesome - https://fontawesome.com License - https://fontawesome.com/license (Commercial License) Copyright 2024 Fonticons, Inc.-->
  <path d="M608 32H32C14.3 32 0 46.3 0 64v384c0 17.7 14.3 32 32 32h576c17.7 0 32-14.3 32-32V64c0-17.7-14.3-32-32-32zm-16 400H48V80h544v352zM296 320h80c4.4 0 8-3.6 8-8v-32c0-4.4-3.6-8-8-8h-80c-4.4 0-8 3.6-8 8v32c0 4.4 3.6 8 8 8zm240-48h-80c-4.4 0-8 3.6-8 8v32c0 4.4 3.6 8 8 8h80c4.4 0 8-3.6 8-8v-32c0-4.4-3.6-8-8-8zm-240-32h240c4.4 0 8-3.6 8-8v-32c0-4.4-3.6-8-8-8H296c-4.4 0-8 3.6-8 8v32c0 4.4 3.6 8 8 8zm-161.3 17.7l42.2 11.4c4.2 1.1 7.1 4.6 7.1 8.3 0 4.8-4.5 8.7-10.1 8.7H147.6c-4.2 0-8.2-1-11.8-3-3.1-1.7-6.8-1.4-9.2 1.2l-12.1 12.7c-3.1 3.3-2.6 8.6 1.1 11.2 8.3 5.7 18.1 8.9 28.4 9.5V328c0 4.4 3.6 8 8 8h16c4.4 0 8-3.6 8-8v-10.3c22.2-1.1 40-18.6 40-40.3 0-18.2-12.6-34.3-30.7-39.2l-42.2-11.4c-4.2-1.1-7.1-4.6-7.1-8.3 0-4.8 4.5-8.7 10.1-8.7h26.3c4.2 0 8.2 1 11.8 3 3.1 1.7 6.8 1.4 9.2-1.2l12.1-12.7c3.1-3.3 2.6-8.6-1.1-11.2-8.3-5.7-18.1-8.9-28.4-9.5V168c0-4.4-3.6-8-8-8h-16c-4.4 0-8 3.6-8 8v10.3c-22.2 1.1-40 18.6-40 40.3 0 18.2 12.6 34.3 30.7 39.2z"/>
</svg>